<?xml version="1.0" encoding="iso-8859-1"?>
<!-- Generator: Adobe Illustrator 19.0.0, SVG Export Plug-In . SVG Version: 6.00 Build 0)  -->
<svg version="1.1" id="Capa_1" xmlns="http://www.w3.org/2000/svg" xmlns:xlink="http://www.w3.org/1999/xlink" x="0px" y="0px"
	 viewBox="0 0 512 512" style="enable-background:new 0 0 512 512;" xml:space="preserve">
<g>
	<path style="fill:#455A64;" d="M480,288v192c0,17.664-14.336,32-32,32H64c-17.664,0-32-14.336-32-32V288H480z"/>
	<path style="fill:#455A64;" d="M480,32v256H32V32C32,14.336,46.336,0,64,0h384C465.664,0,480,14.336,480,32z"/>
</g>
<rect x="64" y="32" style="fill:#FAFAFA;" width="384" height="224"/>
<g>
	<path style="fill:#2196F3;" d="M404.64,64.704c-6.848-2.08-14.016,0.576-17.952,6.432L368,99.168l-18.688-28.032
		c-3.904-5.856-11.136-8.48-17.952-6.432C324.64,66.752,320,72.96,320,80.032v128c0,8.832,7.168,16,16,16s16-7.168,16-16v-75.168
		l2.688,4.032c5.952,8.896,20.672,8.896,26.624,0l2.688-4.032v75.168c0,8.832,7.168,16,16,16s16-7.168,16-16v-128
		C416,72.96,411.36,66.752,404.64,64.704z"/>
	<path style="fill:#2196F3;" d="M272,64.032h-64c-8.832,0-16,7.168-16,16s7.168,16,16,16h16v112c0,8.832,7.168,16,16,16
		s16-7.168,16-16v-112h16c8.832,0,16-7.168,16-16S280.832,64.032,272,64.032z"/>
	<path style="fill:#2196F3;" d="M159.52,76.16c-3.552-14.24-27.456-14.24-31.04,0l-32,128c-2.144,8.544,3.072,17.248,11.648,19.36
		c8.512,2.08,17.248-3.04,19.392-11.616l4.96-19.872h23.04l4.96,19.872c1.824,7.264,8.32,12.128,15.52,12.128
		c1.28,0,2.592-0.16,3.904-0.48c8.544-2.144,13.76-10.848,11.616-19.392L159.52,76.16z M140.48,160.032l3.52-14.048L147.52,160
		h-7.04V160.032z"/>
</g>
<path style="fill:#CFD8DC;" d="M384,416H128c-17.664,0-32-14.336-32-32v-32c0-17.664,14.336-32,32-32h256c17.664,0,32,14.336,32,32
	v32C416,401.664,401.664,416,384,416z"/>
<rect x="128" y="384" style="fill:#4DB6AC;" width="256" height="128"/>
<rect x="128" y="352" style="fill:#009688;" width="256" height="32"/>
<g>
</g>
<g>
</g>
<g>
</g>
<g>
</g>
<g>
</g>
<g>
</g>
<g>
</g>
<g>
</g>
<g>
</g>
<g>
</g>
<g>
</g>
<g>
</g>
<g>
</g>
<g>
</g>
<g>
</g>
</svg>
