<svg height="512" viewBox="0 0 512 512" width="512" xmlns="http://www.w3.org/2000/svg"><g id="filled_outline" data-name="filled outline"><path d="m264 160h-32v-16a16 16 0 0 1 16-16 16 16 0 0 1 16 16z" fill="#3775a4"/><path d="m328 120v40h32v-8l-8-32z" fill="#3775a4"/><path d="m392 184h-184l-8-8h-16l16-24h176z" fill="#4799cf"/><path d="m368 128h-56a8 8 0 0 1 0-16h56a8 8 0 0 1 0 16z" fill="#4799cf"/><path d="m392 184h-192v-8h188z" fill="#428dc5"/><path d="m464 216v32h-392l6.86-8 41.14-48h16l16-16h48l8 8h224z" fill="#cdcdcd"/><path d="m136 208h16v16h-16z" fill="#f3f3f3"/><path d="m136 216h8v8h-8z" fill="#f9f9f9"/><path d="m168 208h16v16h-16z" fill="#f3f3f3"/><path d="m200 208h16v16h-16z" fill="#f3f3f3"/><path d="m232 208h16v16h-16z" fill="#f3f3f3"/><path d="m264 208h16v16h-16z" fill="#f3f3f3"/><path d="m296 208h16v16h-16z" fill="#f3f3f3"/><path d="m328 208h16v16h-16z" fill="#f3f3f3"/><path d="m360 208h16v16h-16z" fill="#f3f3f3"/><path d="m24 248 40 48h400l24-48z" fill="#4799cf"/><path d="m392 208h16v16h-16z" fill="#f3f3f3"/><path d="m464 216v8h-40v-16h32z" fill="#f9f9f9"/><path d="m456 216v8h-32v-16h24z" fill="#f3f3f3"/><path d="m496 354c-25.6 0-38.553-5.4-51.079-10.615-11.583-4.826-22.521-9.385-44.921-9.385s-33.342 4.559-44.926 9.385c-12.528 5.215-25.48 10.615-51.081 10.615s-38.551-5.4-51.076-10.615c-11.583-4.826-22.523-9.385-44.923-9.385s-33.339 4.559-44.921 9.385c-12.525 5.215-25.473 10.615-51.073 10.615s-38.551-5.4-51.076-10.615c-11.584-4.826-22.524-9.385-44.924-9.385v-16c25.6 0 38.551 5.4 51.076 10.615 11.582 4.826 22.524 9.385 44.924 9.385s33.338-4.559 44.92-9.384c12.523-5.216 25.48-10.616 51.074-10.616s38.551 5.4 51.077 10.615c11.582 4.826 22.522 9.385 44.922 9.385s33.341-4.559 44.925-9.385c12.525-5.215 25.482-10.615 51.082-10.615s38.552 5.4 51.078 10.615c11.58 4.826 22.522 9.385 44.922 9.385z" fill="#6cbae5"/><path d="m496 394c-25.6 0-38.553-5.4-51.079-10.615-11.583-4.826-22.521-9.385-44.921-9.385s-33.342 4.559-44.926 9.385c-12.528 5.215-25.48 10.615-51.081 10.615s-38.551-5.4-51.076-10.615c-11.583-4.826-22.523-9.385-44.923-9.385s-33.339 4.559-44.921 9.385c-12.525 5.215-25.473 10.615-51.073 10.615s-38.551-5.4-51.076-10.615c-11.584-4.826-22.524-9.385-44.924-9.385v-16c25.6 0 38.551 5.4 51.076 10.615 11.582 4.826 22.524 9.385 44.924 9.385s33.338-4.559 44.92-9.384c12.523-5.216 25.48-10.616 51.074-10.616s38.551 5.4 51.077 10.615c11.582 4.826 22.522 9.385 44.922 9.385s33.341-4.559 44.925-9.385c12.525-5.215 25.482-10.615 51.082-10.615s38.552 5.4 51.078 10.615c11.58 4.826 22.522 9.385 44.922 9.385z" fill="#4799cf"/><path d="m464 240v8h-392l6.86-8z" fill="#b9b9b9"/><g fill="#f9f9f9"><path d="m168 216h8v8h-8z"/><path d="m200 216h8v8h-8z"/><path d="m232 216h8v8h-8z"/><path d="m264 216h8v8h-8z"/><path d="m264 216h8v8h-8z"/><path d="m296 216h8v8h-8z"/><path d="m328 216h8v8h-8z"/><path d="m360 216h8v8h-8z"/><path d="m392 216h8v8h-8z"/></g><path d="m136 208h16v16h-16z"/><path d="m168 208h16v16h-16z"/><path d="m200 208h16v16h-16z"/><path d="m232 208h16v16h-16z"/><path d="m264 208h16v16h-16z"/><path d="m296 208h16v16h-16z"/><path d="m328 208h16v16h-16z"/><path d="m360 208h16v16h-16z"/><path d="m272 144a24 24 0 0 0 -48 0h-24a8 8 0 0 0 -6.656 3.562l-13.625 20.438h-27.719a8 8 0 0 0 -5.657 2.343l-13.657 13.657h-12.686a8 8 0 0 0 -6.074 2.793l-45.606 53.207h-44.32a8 8 0 0 0 -6.146 13.122l40 48a8 8 0 0 0 6.146 2.878h400a8 8 0 0 0 7.155-4.422l24-48a8 8 0 0 0 -7.155-11.578h-16v-24a8 8 0 0 0 -2.343-5.657l-32-32a8 8 0 0 0 -5.657-2.343h-35.056l-13.789-27.578a8 8 0 0 0 -7.155-4.422h-9.754l-4-16h5.754a8 8 0 0 0 0-16h-56a8 8 0 0 0 0 16h8v16zm-24-8a8.009 8.009 0 0 1 8 8h-16a8.009 8.009 0 0 1 8-8zm227.056 120-16 32h-391.309l-26.667-32zm-46.37-64 16 16h-20.686v16h32v16h-366.606l34.286-40h12.32a8 8 0 0 0 5.657-2.343l13.657-13.657h41.372l5.657 5.657a8 8 0 0 0 5.657 2.343zm-92.686-64h9.754l4 16h-13.754zm35.056 32 8 16h-167.742l-5.657-5.657a8 8 0 0 0 -5.657-2.343h-1.052l5.333-8z"/><path d="m392 208h16v16h-16z"/><path d="m400 318c-25.6 0-38.554 5.4-51.079 10.615-11.587 4.826-22.527 9.385-44.928 9.385s-33.34-4.559-44.922-9.385c-12.526-5.215-25.477-10.615-51.077-10.615s-38.551 5.4-51.076 10.616c-11.582 4.825-22.518 9.384-44.918 9.384s-33.34-4.559-44.922-9.385c-12.527-5.215-25.478-10.615-51.078-10.615v16c22.4 0 33.34 4.559 44.922 9.385 12.525 5.215 25.478 10.615 51.078 10.615s38.55-5.4 51.075-10.615c11.58-4.826 22.525-9.385 44.919-9.385s33.34 4.559 44.923 9.385c12.525 5.215 25.477 10.615 51.076 10.615s38.553-5.4 51.078-10.615c11.584-4.826 22.529-9.385 44.929-9.385s33.341 4.559 44.924 9.385c12.523 5.215 25.476 10.615 51.076 10.615v-16c-22.4 0-33.342-4.559-44.925-9.385-12.526-5.215-25.475-10.615-51.075-10.615z"/><path d="m400 358c-25.6 0-38.554 5.4-51.079 10.615-11.587 4.826-22.527 9.385-44.928 9.385s-33.34-4.559-44.922-9.385c-12.526-5.215-25.477-10.615-51.077-10.615s-38.551 5.4-51.076 10.616c-11.582 4.825-22.518 9.384-44.918 9.384s-33.34-4.559-44.922-9.385c-12.527-5.215-25.478-10.615-51.078-10.615v16c22.4 0 33.34 4.559 44.922 9.385 12.525 5.215 25.478 10.615 51.078 10.615s38.55-5.4 51.075-10.615c11.58-4.826 22.525-9.385 44.919-9.385s33.34 4.559 44.923 9.385c12.525 5.215 25.477 10.615 51.076 10.615s38.553-5.4 51.078-10.615c11.584-4.826 22.529-9.385 44.929-9.385s33.341 4.559 44.924 9.385c12.523 5.215 25.476 10.615 51.076 10.615v-16c-22.4 0-33.342-4.559-44.925-9.385-12.526-5.215-25.475-10.615-51.075-10.615z"/></g></svg>