<svg id="Capa_1" enable-background="new 0 0 512 512" height="512" viewBox="0 0 512 512" width="512" xmlns="http://www.w3.org/2000/svg"><g><g><path d="m363.806 7.5h-215.612c-51.716 0-93.64 41.924-93.64 93.64v228.989c0 51.716 41.924 93.64 93.64 93.64h55.379c5.036 0 9.599 2.966 11.643 7.568l29.14 65.595c4.483 10.091 18.804 10.091 23.287 0l29.14-65.595c2.044-4.602 6.608-7.568 11.643-7.568h55.379c51.716 0 93.64-41.924 93.64-93.64v-228.989c.001-51.716-41.923-93.64-93.639-93.64z" fill="#f5f5f5"/></g><g><path d="m267.961 249.63h-23.922c-4.888 0-8.933-3.801-9.237-8.679l-9.64-154.788c-.332-5.327 3.899-9.83 9.237-9.83h43.203c5.337 0 9.568 4.503 9.237 9.83l-9.641 154.788c-.304 4.878-4.349 8.679-9.237 8.679zm-11.961 48.977c-15.061 0-27.27 12.209-27.27 27.27s12.209 27.27 27.27 27.27 27.27-12.209 27.27-27.27-12.209-27.27-27.27-27.27z" fill="#75cff9"/></g><g><path d="m363.806 7.5h-30c51.716 0 93.64 41.924 93.64 93.64v228.989c0 51.716-41.924 93.64-93.64 93.64h30c51.716 0 93.64-41.924 93.64-93.64v-228.989c0-51.716-41.924-93.64-93.64-93.64z" fill="#ebe5ed"/></g><g><path d="m256 298.607c-5.543 0-10.696 1.658-15 4.499 7.391 4.878 12.27 13.253 12.27 22.771s-4.88 17.893-12.27 22.771c4.304 2.841 9.457 4.499 15 4.499 15.061 0 27.27-12.21 27.27-27.27 0-15.061-12.209-27.27-27.27-27.27z" fill="#6cbff8"/></g><g><path d="m277.601 76.333h-30c5.337 0 9.568 4.503 9.237 9.83l-9.641 154.788c-.238 3.816-2.769 6.963-6.197 8.157.954.333 1.975.522 3.039.522h23.922c4.888 0 8.933-3.801 9.237-8.679l9.641-154.788c.331-5.327-3.9-9.83-9.238-9.83z" fill="#6cbff8"/></g><g><path d="m267.961 257.13h-23.921c-8.829 0-16.174-6.902-16.722-15.713l-9.641-154.787c-.286-4.597 1.358-9.159 4.513-12.515 3.154-3.356 7.604-5.281 12.209-5.281h43.203c4.605 0 9.056 1.925 12.209 5.281 3.154 3.356 4.799 7.918 4.513 12.514l-9.641 154.788c-.549 8.811-7.894 15.713-16.722 15.713zm-33.562-173.297c-.627 0-1.041.301-1.279.553-.237.252-.511.685-.473 1.311l9.641 154.787c.058.923.827 1.646 1.751 1.646h23.921c.925 0 1.694-.723 1.751-1.645l9.641-154.788c.039-.626-.236-1.058-.473-1.311-.237-.252-.651-.553-1.279-.553z"/></g><g><path d="m256 360.647c-19.172 0-34.77-15.598-34.77-34.771 0-19.172 15.598-34.77 34.77-34.77s34.77 15.598 34.77 34.77c0 19.173-15.597 34.771-34.77 34.771zm0-54.54c-10.901 0-19.77 8.869-19.77 19.77s8.869 19.771 19.77 19.771 19.77-8.869 19.77-19.771-8.868-19.77-19.77-19.77z"/></g><g><path d="m363.806 0h-215.612c-55.769 0-101.14 45.371-101.14 101.14v50.546c0 4.142 3.358 7.5 7.5 7.5s7.5-3.358 7.5-7.5v-50.546c0-47.498 38.643-86.14 86.14-86.14h215.611c47.497 0 86.14 38.642 86.14 86.14v137.108c0 4.142 3.358 7.5 7.5 7.5s7.5-3.358 7.5-7.5v-137.108c.001-55.769-45.37-101.14-101.139-101.14z"/><path d="m457.446 260.748c-4.142 0-7.5 3.358-7.5 7.5v61.881c0 47.498-38.643 86.14-86.141 86.14h-55.379c-7.993 0-15.254 4.72-18.497 12.023l-29.14 65.595c-1.249 2.81-3.765 3.113-4.79 3.113-1.024 0-3.541-.304-4.789-3.113l-29.14-65.595c-3.245-7.304-10.505-12.023-18.498-12.023h-55.379c-47.498 0-86.14-38.642-86.14-86.14v-148.443c0-4.142-3.358-7.5-7.5-7.5s-7.5 3.358-7.5 7.5v148.443c0 55.769 45.371 101.14 101.14 101.14h55.379c2.069 0 3.949 1.222 4.79 3.113l29.14 65.595c3.295 7.416 10.383 12.023 18.498 12.023s15.203-4.607 18.498-12.023l29.141-65.595c.839-1.891 2.719-3.112 4.789-3.112h55.379c55.769 0 101.141-45.371 101.141-101.14v-61.881c-.002-4.143-3.36-7.501-7.502-7.501z"/></g></g></svg>