<svg id="Capa_1" enable-background="new 0 0 512 512" height="512" viewBox="0 0 512 512" width="512" xmlns="http://www.w3.org/2000/svg"><g><path d="m256 0c-102.299 0-186.599 79.501-194.399 180l36.899 30h157.5 160.313l34.087-30c-7.801-100.499-92.101-180-194.4-180z" fill="#ff6c6c"/><path d="m450.399 180c-7.8-100.499-92.1-180-194.399-180v210h160.313z" fill="#e63950"/><path d="m451 512h-30v-61l30 31z" fill="#5b5555"/><path d="m91 512h-30v-30l30-31z" fill="#766e6e"/><path d="m450.399 180h-194.399-194.399c-.301 4.799-.601 9.901-.601 15v287h195 195v-287c0-5.099-.3-10.201-.601-15z" fill="#e63950"/><path d="m451 195c0-5.099-.3-10.201-.601-15h-194.399v302h195z" fill="#ae2538"/><path d="m256 272.8-135 22.5v125.7h135 135v-125.7z" fill="#ffb64c"/><path d="m391 295.3-135-22.5v148.2h135z" fill="#ff9100"/><path d="m256 241h-135v54.3l135 67.5 135-67.5v-54.3z" fill="#ffd396"/><path d="m391 241h-135v121.8l135-67.5z" fill="#ffb64c"/><path d="m256 90h-75v30h75 75v-30z" fill="#766e6e"/><path d="m256 90h75v30h-75z" fill="#5b5555"/></g></svg>