<svg id="Layer_1" enable-background="new 0 0 512.01 512.01" height="512" viewBox="0 0 512.01 512.01" width="512" xmlns="http://www.w3.org/2000/svg"><g><g clip-rule="evenodd" fill-rule="evenodd"><path d="m116.173 116.168h279.663v279.663h-279.663z" fill="#fff2a0" transform="matrix(.707 -.707 .707 .707 -106.037 256.003)"/><path d="m256.005 58.248 197.752 197.752-197.752 197.752-197.752-197.752zm14.163-42.405c-7.79-7.79-20.537-7.79-28.326 0l-225.995 225.994c-7.79 7.79-7.79 20.536 0 28.326l225.994 225.994c7.79 7.79 20.536 7.79 28.326 0l225.994-225.994c7.79-7.79 7.79-20.536 0-28.326z" fill="#ffcd69"/></g><g><path d="m503.234 234.766-225.994-225.995c-5.657-5.656-13.199-8.771-21.235-8.771-8.037 0-15.578 3.115-21.234 8.771l-225.995 225.995c-5.656 5.656-8.771 13.197-8.771 21.234s3.115 15.578 8.771 21.234l225.994 225.995c5.855 5.854 13.543 8.782 21.234 8.781 7.689-.001 15.38-2.928 21.235-8.781l225.994-225.995c5.656-5.656 8.771-13.197 8.771-21.234s-3.114-15.578-8.77-21.234zm-14.143 28.326-225.994 225.994c-3.909 3.91-10.273 3.911-14.184 0l-225.995-225.994c-1.878-1.878-2.913-4.397-2.913-7.092s1.035-5.213 2.913-7.092l225.995-225.994c1.878-1.878 4.397-2.914 7.092-2.914s5.213 1.035 7.092 2.914l225.994 225.994c1.879 1.878 2.914 4.397 2.914 7.092s-1.035 5.213-2.914 7.092z"/><path d="m263.075 51.177c-3.904-3.905-10.237-3.905-14.142 0l-197.752 197.752c-3.905 3.905-3.905 10.237 0 14.143l97.96 97.96c3.905 3.905 10.237 3.905 14.143 0s3.905-10.237 0-14.143l-90.889-90.889 183.61-183.61 183.61 183.61-183.61 183.61-29.081-29.082c-3.905-3.905-10.237-3.905-14.143 0s-3.905 10.237 0 14.143l36.152 36.152c1.953 1.953 4.512 2.929 7.071 2.929s5.119-.976 7.071-2.929l197.753-197.752c1.875-1.875 2.929-4.419 2.929-7.071s-1.054-5.196-2.929-7.071z"/><path d="m257.767 296c5.522 0 10-4.477 10-10v-40c0-16.542-13.458-30-30-30s-30 13.458-30 30v40c0 5.523 4.477 10 10 10s10-4.477 10-10v-10h20v10c0 5.523 4.477 10 10 10zm-30-40v-10c0-5.514 4.486-10 10-10s10 4.486 10 10v10z"/><path d="m284.333 294.321c1.705 1.136 3.632 1.68 5.538 1.68 3.23 0 6.402-1.563 8.329-4.454l11.68-17.52 11.68 17.52c1.927 2.891 5.098 4.454 8.329 4.454 1.906 0 3.834-.544 5.538-1.68 4.596-3.064 5.837-9.272 2.773-13.868l-16.302-24.453 16.302-24.453c3.063-4.595 1.822-10.804-2.773-13.868-4.596-3.062-10.804-1.823-13.867 2.774l-11.68 17.52-11.68-17.52c-3.063-4.596-9.274-5.836-13.867-2.774-4.596 3.064-5.837 9.272-2.773 13.868l16.302 24.453-16.302 24.453c-3.064 4.595-1.822 10.804 2.773 13.868z"/><path d="m372.004 286v-60c0-5.523-4.478-10-10-10s-10 4.477-10 10v60c0 5.523 4.478 10 10 10s10-4.477 10-10z"/><path d="m190.004 216h-40c-5.523 0-10 4.477-10 10s4.477 10 10 10h10v50c0 5.523 4.477 10 10 10s10-4.477 10-10v-50h10c5.523 0 10-4.477 10-10s-4.477-10-10-10z"/><path d="m195.429 379.05c-3.716-4.086-10.037-4.385-14.124-.67-4.086 3.715-4.385 10.042-.67 14.128 1.974 2.171 4.683 3.273 7.402 3.273 2.4 0 4.808-.859 6.724-2.601 4.086-3.715 4.388-10.04.673-14.126z"/></g></g></svg>